<?xml version="1.0" encoding="utf-8"?>
<svg
  version="1.1"
  id="Layer_1"
  xmlns="http://www.w3.org/2000/svg"
  xmlns:xlink="http://www.w3.org/1999/xlink"
  x="0px"
  y="0px"
	viewBox="0 0 511.56 110.43"
  style="enable-background:new 0 0 511.56 110.43;"
  xml:space="preserve">
		<path
    fill="#b10a1b"
    d="M315.37,85.11L318,60.84h5.13l-2.63,24.27h10.14l6.46-59.79h-10.14l-2.63,24.27h-5.13l2.63-24.27H311.7l-6.46,59.79H315.37z M264.73,85.11h10.2l1.2-11.25h-10.2L264.73,85.11z M7.68,8.44v93.55h496.28V8.44L7.68,8.44z M74.67,93.55H62.63l0.92-8.44h12.04L74.67,93.55z M73.37,73.85h-5.23l5.83-37.28h3.45L73.37,73.85z M496.35,93.55h-265.4l0.91-8.44h9.93l7.86-21.31h2.12l-2.31,21.31h10.14l6.46-59.79h-26.05l-4.18,38.47h3.9l-7.78,20.53l1.13-10.47h-3.45l5.26-48.53h-10.14l-5.26,48.53h-5.13l5.26-48.53h-10.14L203,85.11h18.73l-0.92,8.44h-136l2.15-19.69h-3.45l5.26-48.53h-23.2L58,73.85h-3.39l-2.12,19.69h-37.2V16.88h481.07L496.35,93.55z M247.21,52.54l1.71-15.97h5.8l-1.74,15.97H247.21z M301.3,73.85h-9.89l4.06-37.28h9.89l1.2-11.25h-20.03l-6.46,59.79h20.03L301.3,73.85z M126.25,85.11l2.73-25.32h1.9l3.04,25.32h10.14l-3.3-25.32h4.15l3.71-34.47h-10.14l-2.5,23.21h-5.77l2.5-23.21h-10.14l-6.46,59.79H126.25z M112.18,73.85h-9.89l4.06-37.28h9.89l1.2-11.25H97.41l-6.46,59.79h20.03L112.18,73.85z M167.32,85.11l1.2-11.25h-9.89l4.06-37.28h9.89l1.2-11.25h-20.03l-6.46,59.79H167.32z M35.66,60.84h5.13l-2.63,24.27H48.3l6.46-59.79H44.63L42,49.59h-5.13l2.63-24.27H29.35l-6.46,59.79h10.14L35.66,60.84z M182.59,85.11l2.63-24.27h5.13l-2.63,24.27h10.14l6.46-59.79h-10.14l-2.63,24.27h-5.13l2.63-24.27h-10.14l-6.46,59.79H182.59z M382.56,60.85l-5.31-5.62l6.64-5.62l2.92-24.26h-28.2l-7.17,59.77h28.2L382.56,60.85z M369.72,73.86h-5.7l1.58-13.01h5.7L369.72,73.86z M372.64,49.6h-5.7l1.58-13.01h5.7L372.64,49.6z M396.02,85.11l7.17-59.77h-11.25l-7.17,59.77H396.02z M429.34,85.11l2.92-24.26l-5.31-5.62l6.64-5.62l2.92-24.26h-28.2l-7.17,59.77H429.34z M418.23,36.59h5.7l-1.58,13.01h-5.7L418.23,36.59z M415.31,60.85h5.7l-1.58,13.01h-5.7L415.31,60.85z M456.69,85.11l1.34-11.25h-10.97l5.84-48.52h-11.25l-7.17,59.77H456.69z M485.43,73.86h-10.97l1.55-12.87h11l1.34-11.25h-10.97l1.58-13.15h10.97l1.34-11.25h-22.22l-7.17,59.77h22.22L485.43,73.86z"/>
</svg>
